<svg width="400" height="400" viewBox="0 0 400 400" fill="none" xmlns="http://www.w3.org/2000/svg">
<path d="M174.688 323V255.254C159.478 251.978 146.022 246.011 134.322 237.352C122.855 228.694 113.846 217.578 107.293 204.006C100.975 190.199 97.816 174.403 97.816 156.618V77.2889H148.011V159.778C148.011 169.606 150.117 178.615 154.33 186.806C158.542 194.762 164.509 201.198 172.231 206.112C180.188 211.026 189.431 213.483 199.962 213.483C210.726 213.483 219.97 211.026 227.692 206.112C235.414 201.198 241.382 194.762 245.594 186.806C249.806 178.615 251.912 169.606 251.912 159.778V77.2889H302.107V156.618C302.107 174.403 298.831 190.199 292.279 204.006C285.961 217.578 276.951 228.811 265.251 237.703C253.784 246.362 240.328 252.212 224.884 255.254V323H174.688Z" fill="#0E0F28"/>
<circle cx="276.64" cy="297.075" r="25.6051" fill="#2A3EF4"/>
</svg>
