<svg width="1584" height="396" viewBox="0 0 1584 396" fill="none" xmlns="http://www.w3.org/2000/svg">
<rect width="1584" height="396" fill="white"/>
<path d="M1536.25 396C1562.62 396 1584 374.622 1584 348.25C1584 321.878 1562.62 300.5 1536.25 300.5C1509.88 300.5 1488.5 321.878 1488.5 348.25C1488.5 374.622 1509.88 396 1536.25 396Z" fill="#2A3EF4"/>
<path d="M1584 300.5C1584 287.836 1578.97 275.691 1570.01 266.736C1561.06 257.781 1548.91 252.75 1536.25 252.75C1523.59 252.75 1511.44 257.781 1502.49 266.736C1493.53 275.691 1488.5 287.836 1488.5 300.5L1536.25 300.5H1584Z" fill="#2A3EF4" fill-opacity="0.5"/>
<path d="M1584 252.75C1584 240.086 1578.97 227.941 1570.01 218.986C1561.06 210.031 1548.91 205 1536.25 205C1523.59 205 1511.44 210.031 1502.49 218.986C1493.53 227.941 1488.5 240.086 1488.5 252.75L1536.25 252.75H1584Z" fill="#2A3EF4" fill-opacity="0.2"/>
<path d="M1440.75 300.5C1428.09 300.5 1415.94 305.531 1406.99 314.486C1398.03 323.441 1393 335.586 1393 348.25C1393 360.914 1398.03 373.059 1406.99 382.014C1415.94 390.969 1428.09 396 1440.75 396L1440.75 348.25V300.5Z" fill="#2A3EF4" fill-opacity="0.2"/>
<path d="M1488.5 300.5C1475.84 300.5 1463.69 305.531 1454.74 314.486C1445.78 323.441 1440.75 335.586 1440.75 348.25C1440.75 360.914 1445.78 373.059 1454.74 382.014C1463.69 390.969 1475.84 396 1488.5 396L1488.5 348.25V300.5Z" fill="#2A3EF4" fill-opacity="0.5"/>
<path d="M1488.5 252.75C1488.5 243.306 1485.7 234.074 1480.45 226.222C1475.21 218.369 1467.75 212.249 1459.02 208.635C1450.3 205.021 1440.7 204.075 1431.43 205.918C1422.17 207.76 1413.66 212.308 1406.99 218.986C1400.31 225.664 1395.76 234.172 1393.92 243.434C1392.08 252.697 1393.02 262.298 1396.63 271.023C1400.25 279.748 1406.37 287.206 1414.22 292.453C1422.07 297.7 1431.31 300.5 1440.75 300.5L1440.75 252.75H1488.5Z" fill="#2A3EF4" fill-opacity="0.2"/>
<path d="M1488.5 252.75C1482.23 252.75 1476.02 253.985 1470.23 256.385C1464.43 258.784 1459.17 262.302 1454.74 266.736C1450.3 271.17 1446.78 276.434 1444.38 282.227C1441.99 288.02 1440.75 294.229 1440.75 300.5L1488.5 300.5V252.75Z" fill="#2A3EF4" fill-opacity="0.5"/>
</svg>
